<svg width="160" height="63" viewBox="0 0 160 63" fill="none" xmlns="http://www.w3.org/2000/svg">
<path d="M55.0833 60.5062C53.5152 58.0853 53.5012 58.1026 57.8478 57.0786C63.0207 55.86 69.268 52.8039 73.092 49.6215L76.2049 47.0309L77.3811 48.3984C79.0821 50.3759 78.9125 50.7224 74.4645 54.3593C71.0188 57.1768 58.8033 62.4825 56.2824 62.2565C56.2442 62.253 55.7046 61.4655 55.0833 60.5062ZM100.241 45.0652C100.452 25.1872 100.579 24.5585 105.253 20.3564C116.176 10.5359 133.186 21.1446 129.093 35.2246C126.445 44.3313 117.455 47.9671 107.555 43.9348C106.736 43.6016 106.676 44.2202 106.676 52.9198V62.2628H103.367H100.059L100.241 45.0652ZM120.017 37.7262C126.154 32.9206 122.861 23.0975 115.113 23.0975C106.647 23.0975 103.686 33.2415 110.739 38.0795C113.034 39.6539 117.787 39.4729 120.017 37.7262ZM51.4374 54.6054C50.1355 52.4702 50.1752 52.2218 51.8195 52.213C56.8693 52.1858 65.7033 48.4905 69.6568 44.7515L72.3225 42.2304L73.6716 43.9211L75.0208 45.6119L72.3565 48.0469C65.6794 54.1494 53.4895 57.9712 51.4374 54.6054ZM10.454 51.0582C5.3185 46.6055 1.52059 41.0795 0.0160982 35.8708C-0.250913 34.9463 2.88306 32.616 3.52712 33.2601C3.61693 33.3499 4.61661 35.2739 5.74863 37.5356C7.99641 42.0265 11.4348 46.1264 15.3858 49.0266C18.1584 51.0619 18.1375 51.1918 14.7503 52.9794C13.5228 53.6272 13.3042 53.5294 10.454 51.0582ZM48.0386 49.2275L46.8938 47.1992L48.7918 47.1905C54.5002 47.1642 62.2359 44.1648 66.5131 40.3193L68.9315 38.1449L69.9785 39.476C71.3648 41.2384 71.366 41.2341 68.8081 43.5919C65.1183 46.9931 57.8287 50.1166 51.694 50.925L49.1834 51.2559L48.0386 49.2275ZM15.7385 47.2079C11.1325 43.7481 7.8162 39.2885 5.98066 34.086L5.29182 32.1336L7.21801 31.151L9.14421 30.1683L10.0398 32.5328C11.9034 37.4531 15.6133 42.0002 20.4364 45.2755C23.8402 47.587 23.7572 47.3518 21.6331 48.6646C19.4073 50.0402 19.5588 50.0776 15.7385 47.2079ZM20.9463 43.7091C16.1208 40.3203 10.774 33.0339 10.7717 29.8435C10.7709 28.7341 14.2798 27.4996 14.6027 28.4958C16.3474 33.8784 21.1023 39.7113 25.7485 42.1684C29.0801 43.9302 29.0917 43.9537 27.2008 45.1223C24.9044 46.5415 25.0151 46.5665 20.9463 43.7091ZM41.1012 45.6924C23.2423 43.7602 11.165 29.6458 17.533 18.1489C27.9306 -0.623199 66.9376 5.55183 70.2025 26.4868L70.5353 28.6208H68.8419C67.1759 28.6208 67.1435 28.5785 66.8399 26.0151C64.2619 4.24798 19.8094 2.57843 19.8094 24.2487C19.8094 40.8221 50.1385 48.9979 63.0011 35.8919L65.1315 33.7211L66.3923 35.2194L67.653 36.7177L65.6989 38.7274C60.7465 43.8207 50.5327 46.7128 41.1012 45.6924ZM96.4694 43.7143C92.6921 39.5333 92.0035 36.3143 92.4677 25.0062L92.7728 17.5742H95.7074H98.6421V31.6335C98.6421 39.3661 98.5554 45.6928 98.4494 45.6928C98.3435 45.6928 97.4525 44.8025 96.4694 43.7143ZM140.671 44.9991C136.296 43.3685 132.858 40.1023 131.494 36.2791C130.984 34.8497 130.816 30.2458 130.8 17.1976L130.778 0H133.79H136.803V9.34776C136.803 19.8409 136.358 18.9584 140.82 17.3063C152.589 12.949 164.264 26.4156 158.465 37.6589C155.186 44.0171 147.046 47.375 140.671 44.9991ZM149.882 38.0338C156.678 33.4541 153.47 23.0975 145.255 23.0975C137.146 23.0975 134.005 33.5532 140.769 38.0348C143.15 39.6128 147.54 39.6123 149.882 38.0338ZM71.3221 24.9804C70.2867 21.2557 69.0707 19.1603 66.0772 15.9423L63.8585 13.5572H65.3607C69.007 13.5572 77.0909 26.0127 74.5061 27.6483C72.8533 28.6943 72.203 28.1494 71.3221 24.9804ZM76.025 25.5273C75.1458 22.2621 73.852 20.0121 70.754 16.3604L67.9499 13.0551H69.4461C71.3971 13.0551 75.3464 17.4126 77.8125 22.2862C79.7155 26.0472 79.9447 27.1144 78.8494 27.1144C78.4578 27.1144 77.7937 27.2463 77.3737 27.4074C76.8064 27.6251 76.4598 27.1419 76.025 25.5273ZM80.7208 26.1556C79.7866 23.2197 77.1917 18.8523 74.8325 16.2453C72.1003 13.2261 71.8694 12.553 73.5657 12.553C75.3956 12.553 81.8047 20.6898 83.5111 25.1792C83.9809 26.4153 83.9102 26.5233 82.4955 26.731C81.4092 26.8904 80.9023 26.7261 80.7208 26.1556ZM14.8142 16.6722L13.782 15.8167L15.0513 14.2148C18.0002 10.4928 27.417 5.48688 29.123 6.73433C29.9162 7.31436 29.5835 7.59029 26.0406 9.29038C23.1773 10.6643 21.2007 12.0797 18.9577 14.362C15.9429 17.4295 15.8144 17.5012 14.8142 16.6722ZM92.6167 12.804V9.54026H95.6294H98.6421V12.804V16.0678H95.6294H92.6167V12.804ZM11.2607 14.6521L10.1582 13.7594L13.028 11.1366C17.0487 7.46184 23.8953 4.16052 25.7465 5.00395L27.0845 5.61358L24.5597 6.69821C20.4212 8.47604 17.193 10.5862 14.707 13.1385C12.4019 15.505 12.3449 15.5301 11.2607 14.6521ZM7.80871 12.5953L6.60356 11.6818L9.50026 9.40823C13.4715 6.29135 20.5294 2.83252 22.1093 3.22903C23.8884 3.67555 23.6 4.26732 21.2208 5.05255C18.522 5.9432 13.5958 9.09285 11.0223 11.5731C9.02771 13.4954 9.00555 13.5025 7.80871 12.5953ZM53.9535 8.43458C50.1493 7.10606 44.3674 6.02543 41.0634 6.02543C37.801 6.02543 37.4944 4.87196 40.6862 4.606C44.5199 4.28655 56.3881 6.69233 57.1629 7.94597C57.8941 9.12907 56.5348 9.33602 53.9535 8.43458ZM55.0649 6.27336C52.5805 5.19394 46.5844 4.06917 42.7523 3.96375C39.9892 3.88773 39.3748 3.72437 39.4954 3.09778C39.8935 1.03058 56.9464 3.98946 57.3796 6.20091C57.5751 7.19863 57.2201 7.20974 55.0649 6.27336ZM52.4471 3.25393C50.0997 2.6184 46.3318 1.93988 44.074 1.74611C40.8206 1.4669 40.0258 1.24546 40.2432 0.67883C40.8393 -0.874454 57.9705 2.18083 57.9705 3.84042C57.9705 4.69591 57.6461 4.66146 52.4471 3.25393Z" fill="white"/>
</svg>
