<svg width="359" height="130" viewBox="0 0 359 130" fill="none" xmlns="http://www.w3.org/2000/svg">
<path d="M105.925 116.354C102.91 111.698 102.883 111.732 111.242 109.763C121.189 107.419 133.203 101.542 140.556 95.4225L146.542 90.4408L148.804 93.0703C152.075 96.873 151.749 97.5395 143.196 104.533C136.569 109.951 113.079 120.154 108.231 119.72C108.158 119.713 107.12 118.198 105.925 116.354ZM192.764 86.6606C193.169 48.4351 193.414 47.2261 202.402 39.1456C223.406 20.2606 256.117 40.6612 248.246 67.7371C243.155 85.2493 225.866 92.241 206.828 84.4869C205.255 83.846 205.139 85.0357 205.139 101.765V119.732H198.776H192.413L192.764 86.6606ZM230.794 72.5476C242.596 63.3066 236.262 44.4166 221.363 44.4166C205.083 44.4166 199.388 63.9235 212.952 73.2271C217.366 76.2547 226.504 75.9067 230.794 72.5476ZM98.9144 105.007C96.4109 100.901 96.4872 100.423 99.6492 100.406C109.36 100.354 126.348 93.2475 133.95 86.0574L139.077 81.2092L141.671 84.4606L144.265 87.712L139.142 92.3944C126.302 104.13 102.861 111.479 98.9144 105.007ZM20.1031 98.1852C10.2275 89.6227 2.92411 78.9961 0.0309569 68.9797C-0.482507 67.202 5.54413 62.7208 6.78267 63.9594C6.95538 64.1321 8.87777 67.8319 11.0546 72.1811C15.3771 80.8172 21.9892 88.7013 29.5869 94.2785C34.9187 98.1924 34.8785 98.4421 28.3649 101.88C26.0045 103.125 25.5841 102.937 20.1031 98.1852ZM92.3785 94.6648L90.1771 90.7643L93.8269 90.7475C104.804 90.6971 119.68 84.9292 127.905 77.5341L132.556 73.3529L134.569 75.9125C137.235 79.3017 137.237 79.2934 132.318 83.8275C125.223 90.368 111.205 96.3745 99.4078 97.9292L94.5799 98.5654L92.3785 94.6648ZM30.2652 90.7811C21.4078 84.1278 15.0306 75.552 11.5008 65.5476L10.1762 61.7932L13.8803 59.9035L17.5844 58.0138L19.3065 62.5607C22.8902 72.0225 30.0244 80.7666 39.2993 87.065C45.8449 91.51 45.6852 91.0578 41.6006 93.5823C37.3203 96.2276 37.6117 96.2996 30.2652 90.7811ZM40.2799 84.0529C31.0005 77.5362 20.7185 63.5244 20.714 57.3893C20.7124 55.2558 27.4601 52.8819 28.081 54.7975C31.4361 65.1484 40.5799 76.3651 49.5145 81.09C55.9212 84.478 55.9434 84.5232 52.3074 86.7704C47.8914 89.4996 48.1042 89.5477 40.2799 84.0529ZM79.0379 87.8667C44.6951 84.1511 21.4703 57.009 33.716 34.9004C53.7107 -1.19842 128.721 10.6762 135 50.9342L135.64 55.0379H132.383C129.18 55.0379 129.117 54.9566 128.533 50.0271C123.576 8.16889 38.0936 4.95834 38.0936 46.6304C38.0936 78.501 96.4166 94.2232 121.151 69.0203L125.248 64.8459L127.673 67.7271L130.097 70.6083L126.339 74.4729C116.816 84.2674 97.1747 89.829 79.0379 87.8667ZM185.511 84.0629C178.247 76.0228 176.923 69.8326 177.816 48.0871L178.403 33.7952H184.046H189.689V60.8314C189.689 75.7013 189.523 87.8676 189.319 87.8676C189.115 87.8676 187.402 86.1555 185.511 84.0629ZM270.511 86.5335C262.097 83.3979 255.488 77.117 252.864 69.7649C251.883 67.0162 251.561 58.1629 251.529 33.071L251.486 0H257.28H263.073V17.9758C263.073 38.1542 262.217 36.4571 270.798 33.2801C293.43 24.9009 315.881 50.7973 304.73 72.4183C298.424 84.6452 282.769 91.1024 270.511 86.5335ZM288.225 73.1392C301.293 64.3325 295.123 44.4166 279.327 44.4166C263.732 44.4166 257.693 64.523 270.699 73.1411C275.279 76.1755 283.72 76.1747 288.225 73.1392ZM137.153 48.0375C135.162 40.8747 132.823 36.8453 127.067 30.6571L122.8 26.0706H125.689C132.701 26.0706 148.246 50.0225 143.276 53.1679C140.097 55.1793 138.847 54.1315 137.153 48.0375ZM146.197 49.0892C144.506 42.8102 142.018 38.4835 136.06 31.4611L130.668 25.105H133.545C137.297 25.105 144.892 33.4845 149.634 42.8565C153.293 50.089 153.734 52.1412 151.628 52.1412C150.875 52.1412 149.598 52.3947 148.79 52.7047C147.699 53.1233 147.033 52.1941 146.197 49.0892ZM155.227 50.2973C153.43 44.6516 148.44 36.253 143.903 31.2397C138.649 25.4339 138.205 24.1394 141.467 24.1394C144.986 24.1394 157.311 39.7866 160.592 48.4198C161.496 50.7968 161.36 51.0045 158.639 51.4038C156.55 51.7104 155.576 51.3943 155.227 50.2973ZM28.4878 32.0608L26.5029 30.4157L28.9437 27.3352C34.6146 20.1777 52.723 10.5513 56.0037 12.9502C57.5291 14.0656 56.8892 14.5962 50.0762 17.8654C44.5702 20.5076 40.769 23.2293 36.4557 27.6181C30.6583 33.5171 30.4111 33.6549 28.4878 32.0608ZM178.102 24.6222V18.346H183.896H189.689V24.6222V30.8985H183.896H178.102V24.6222ZM21.6543 28.1761L19.5343 26.4594L25.0529 21.4157C32.7848 14.3492 45.9509 8.00071 49.5106 9.62263L52.0836 10.7949L47.2283 12.8807C39.2701 16.2995 33.0622 20.3573 28.2816 25.2654C23.849 29.8162 23.7393 29.8644 21.6543 28.1761ZM15.0162 24.2207L12.6987 22.4641L18.2691 18.0921C25.9057 12.0983 39.4782 5.44694 42.5163 6.20944C45.9375 7.06811 45.383 8.20608 40.8076 9.71608C35.618 11.4288 26.1449 17.4856 21.196 22.2551C17.3603 25.9517 17.3177 25.9653 15.0162 24.2207ZM103.753 16.2198C96.4373 13.665 85.3187 11.5869 78.9652 11.5869C72.6915 11.5869 72.1019 9.36882 78.2397 8.85737C85.6121 8.24306 108.435 12.8694 109.925 15.2801C111.331 17.5553 108.717 17.9532 103.753 16.2198ZM105.89 12.0637C101.113 9.98797 89.5821 7.82504 82.213 7.62231C76.8994 7.47613 75.7179 7.16199 75.9499 5.95706C76.7155 1.9818 109.508 7.67176 110.341 11.9244C110.717 13.843 110.035 13.8644 105.89 12.0637ZM100.856 6.25732C96.3421 5.0352 89.0964 3.73041 84.7546 3.35778C78.4983 2.82086 76.9698 2.39502 77.388 1.30539C78.5342 -1.68158 111.478 4.19375 111.478 7.38514C111.478 9.03025 110.854 8.96402 100.856 6.25732Z" fill="#2B7ACA"/>
<path d="M210.52 120.13C210.172 120.13 209.898 120.018 209.699 119.794C209.499 119.57 209.4 119.309 209.4 119.01V102.285C209.4 101.986 209.499 101.725 209.699 101.501C209.923 101.277 210.196 101.165 210.52 101.165C210.844 101.165 211.105 101.277 211.304 101.501C211.528 101.725 211.64 101.986 211.64 102.285V107.885L211.08 107.997C211.155 107.126 211.366 106.267 211.715 105.421C212.088 104.55 212.586 103.754 213.208 103.032C213.83 102.31 214.564 101.725 215.411 101.277C216.282 100.829 217.252 100.605 218.323 100.605C218.771 100.605 219.206 100.705 219.629 100.904C220.052 101.078 220.264 101.377 220.264 101.8C220.264 102.173 220.164 102.459 219.965 102.658C219.766 102.858 219.53 102.957 219.256 102.957C219.032 102.957 218.783 102.895 218.509 102.77C218.26 102.646 217.924 102.584 217.501 102.584C216.804 102.584 216.108 102.795 215.411 103.218C214.714 103.617 214.079 104.164 213.507 104.861C212.934 105.558 212.474 106.342 212.125 107.213C211.802 108.059 211.64 108.918 211.64 109.789V119.01C211.64 119.309 211.528 119.57 211.304 119.794C211.08 120.018 210.819 120.13 210.52 120.13ZM240.697 110.573C240.697 112.465 240.286 114.17 239.465 115.688C238.643 117.181 237.523 118.363 236.105 119.234C234.686 120.081 233.068 120.504 231.251 120.504C229.484 120.504 227.879 120.081 226.435 119.234C225.017 118.363 223.884 117.181 223.038 115.688C222.217 114.17 221.806 112.465 221.806 110.573C221.806 108.657 222.217 106.952 223.038 105.458C223.884 103.965 225.017 102.783 226.435 101.912C227.879 101.041 229.484 100.605 231.251 100.605C233.068 100.605 234.686 101.041 236.105 101.912C237.523 102.783 238.643 103.965 239.465 105.458C240.286 106.952 240.697 108.657 240.697 110.573ZM238.457 110.573C238.457 109.055 238.146 107.711 237.523 106.541C236.901 105.346 236.042 104.413 234.947 103.741C233.877 103.044 232.645 102.696 231.251 102.696C229.907 102.696 228.688 103.044 227.593 103.741C226.498 104.413 225.626 105.346 224.979 106.541C224.357 107.711 224.046 109.055 224.046 110.573C224.046 112.091 224.357 113.435 224.979 114.605C225.626 115.775 226.498 116.708 227.593 117.405C228.688 118.077 229.907 118.413 231.251 118.413C232.645 118.413 233.877 118.077 234.947 117.405C236.042 116.708 236.901 115.775 237.523 114.605C238.146 113.435 238.457 112.091 238.457 110.573ZM254.529 100.904C256.222 100.904 257.715 101.327 259.009 102.173C260.328 102.994 261.374 104.139 262.145 105.608C262.917 107.051 263.303 108.719 263.303 110.61C263.303 112.502 262.917 114.182 262.145 115.65C261.374 117.119 260.328 118.276 259.009 119.122C257.69 119.969 256.209 120.392 254.567 120.392C253.696 120.392 252.862 120.267 252.065 120.018C251.294 119.745 250.584 119.384 249.937 118.936C249.29 118.488 248.718 117.965 248.22 117.368C247.722 116.746 247.324 116.074 247.025 115.352L247.697 114.866V126.477C247.697 126.776 247.585 127.037 247.361 127.261C247.162 127.485 246.901 127.597 246.577 127.597C246.254 127.597 245.98 127.485 245.756 127.261C245.557 127.037 245.457 126.776 245.457 126.477V102.136C245.457 101.812 245.557 101.538 245.756 101.314C245.955 101.09 246.229 100.978 246.577 100.978C246.901 100.978 247.162 101.09 247.361 101.314C247.585 101.538 247.697 101.812 247.697 102.136V106.168L247.175 105.869C247.424 105.098 247.784 104.413 248.257 103.816C248.755 103.194 249.328 102.671 249.975 102.248C250.622 101.8 251.331 101.464 252.103 101.24C252.874 101.016 253.683 100.904 254.529 100.904ZM254.343 102.994C252.999 102.994 251.816 103.33 250.796 104.002C249.776 104.65 248.967 105.546 248.369 106.69C247.797 107.81 247.511 109.117 247.511 110.61C247.511 112.079 247.797 113.398 248.369 114.568C248.967 115.738 249.776 116.658 250.796 117.33C251.816 117.978 252.999 118.301 254.343 118.301C255.662 118.301 256.819 117.978 257.815 117.33C258.835 116.658 259.644 115.738 260.241 114.568C260.839 113.398 261.137 112.079 261.137 110.61C261.137 109.142 260.839 107.835 260.241 106.69C259.644 105.546 258.835 104.65 257.815 104.002C256.819 103.33 255.662 102.994 254.343 102.994ZM285.869 110.573C285.869 112.465 285.458 114.17 284.637 115.688C283.815 117.181 282.695 118.363 281.277 119.234C279.858 120.081 278.24 120.504 276.423 120.504C274.656 120.504 273.051 120.081 271.607 119.234C270.189 118.363 269.056 117.181 268.21 115.688C267.389 114.17 266.978 112.465 266.978 110.573C266.978 108.657 267.389 106.952 268.21 105.458C269.056 103.965 270.189 102.783 271.607 101.912C273.051 101.041 274.656 100.605 276.423 100.605C278.24 100.605 279.858 101.041 281.277 101.912C282.695 102.783 283.815 103.965 284.637 105.458C285.458 106.952 285.869 108.657 285.869 110.573ZM283.629 110.573C283.629 109.055 283.318 107.711 282.695 106.541C282.073 105.346 281.214 104.413 280.119 103.741C279.049 103.044 277.817 102.696 276.423 102.696C275.079 102.696 273.86 103.044 272.765 103.741C271.669 104.413 270.798 105.346 270.151 106.541C269.529 107.711 269.218 109.055 269.218 110.573C269.218 112.091 269.529 113.435 270.151 114.605C270.798 115.775 271.669 116.708 272.765 117.405C273.86 118.077 275.079 118.413 276.423 118.413C277.817 118.413 279.049 118.077 280.119 117.405C281.214 116.708 282.073 115.775 282.695 114.605C283.318 113.435 283.629 112.091 283.629 110.573ZM289.547 117.106C289.347 116.808 289.248 116.522 289.248 116.248C289.273 115.949 289.435 115.713 289.733 115.538C289.932 115.364 290.156 115.29 290.405 115.314C290.679 115.339 290.928 115.464 291.152 115.688C291.824 116.559 292.633 117.268 293.579 117.816C294.549 118.338 295.694 118.6 297.013 118.6C297.71 118.6 298.395 118.488 299.067 118.264C299.763 118.015 300.336 117.654 300.784 117.181C301.232 116.683 301.456 116.061 301.456 115.314C301.456 114.543 301.232 113.921 300.784 113.448C300.336 112.975 299.751 112.602 299.029 112.328C298.332 112.054 297.586 111.818 296.789 111.618C295.943 111.394 295.122 111.146 294.325 110.872C293.529 110.573 292.819 110.212 292.197 109.789C291.6 109.341 291.115 108.806 290.741 108.184C290.368 107.562 290.181 106.802 290.181 105.906C290.181 104.861 290.467 103.94 291.04 103.144C291.612 102.347 292.384 101.725 293.355 101.277C294.35 100.829 295.47 100.605 296.715 100.605C297.337 100.605 298.009 100.692 298.731 100.866C299.452 101.016 300.162 101.277 300.859 101.65C301.555 102.024 302.178 102.534 302.725 103.181C302.949 103.405 303.061 103.666 303.061 103.965C303.061 104.239 302.937 104.488 302.688 104.712C302.489 104.861 302.252 104.936 301.979 104.936C301.73 104.936 301.518 104.836 301.344 104.637C300.747 103.965 300.037 103.455 299.216 103.106C298.395 102.758 297.511 102.584 296.565 102.584C295.843 102.584 295.159 102.708 294.512 102.957C293.89 103.181 293.367 103.53 292.944 104.002C292.521 104.475 292.309 105.098 292.309 105.869C292.359 106.591 292.608 107.176 293.056 107.624C293.529 108.072 294.139 108.445 294.885 108.744C295.657 109.042 296.515 109.316 297.461 109.565C298.258 109.764 299.017 110.001 299.739 110.274C300.485 110.548 301.132 110.897 301.68 111.32C302.252 111.718 302.7 112.228 303.024 112.85C303.372 113.473 303.547 114.257 303.547 115.202C303.547 116.298 303.235 117.243 302.613 118.04C302.016 118.836 301.207 119.446 300.187 119.869C299.166 120.292 298.034 120.504 296.789 120.504C295.445 120.504 294.139 120.242 292.869 119.72C291.625 119.197 290.517 118.326 289.547 117.106ZM306.897 101.128H315.596C315.895 101.128 316.143 101.24 316.343 101.464C316.542 101.663 316.641 101.912 316.641 102.21C316.641 102.484 316.542 102.721 316.343 102.92C316.143 103.119 315.895 103.218 315.596 103.218H306.897C306.599 103.218 306.337 103.119 306.113 102.92C305.914 102.696 305.815 102.447 305.815 102.173C305.815 101.874 305.914 101.626 306.113 101.426C306.337 101.227 306.599 101.128 306.897 101.128ZM310.743 95.8638C311.066 95.8638 311.327 95.9758 311.527 96.1998C311.751 96.4238 311.863 96.6851 311.863 96.9838V115.725C311.863 116.422 311.95 116.945 312.124 117.293C312.323 117.642 312.572 117.878 312.871 118.002C313.169 118.102 313.468 118.152 313.767 118.152C313.966 118.152 314.14 118.127 314.289 118.077C314.463 118.002 314.65 117.965 314.849 117.965C315.073 117.965 315.26 118.052 315.409 118.226C315.583 118.401 315.671 118.625 315.671 118.898C315.671 119.247 315.471 119.546 315.073 119.794C314.675 120.018 314.202 120.13 313.655 120.13C313.431 120.13 313.095 120.118 312.647 120.093C312.199 120.043 311.738 119.906 311.265 119.682C310.792 119.434 310.394 119.01 310.071 118.413C309.772 117.816 309.623 116.957 309.623 115.837V96.9838C309.623 96.6851 309.722 96.4238 309.921 96.1998C310.145 95.9758 310.419 95.8638 310.743 95.8638ZM336.423 101.053C336.747 101.053 337.008 101.165 337.207 101.389C337.431 101.613 337.543 101.887 337.543 102.21V119.01C337.543 119.309 337.431 119.57 337.207 119.794C336.983 120.018 336.722 120.13 336.423 120.13C336.099 120.13 335.826 120.018 335.602 119.794C335.403 119.57 335.303 119.309 335.303 119.01V114.568L335.938 114.269C335.938 114.966 335.739 115.675 335.34 116.397C334.967 117.119 334.444 117.791 333.772 118.413C333.1 119.035 332.304 119.546 331.383 119.944C330.487 120.317 329.516 120.504 328.471 120.504C326.779 120.504 325.26 120.068 323.916 119.197C322.597 118.326 321.552 117.131 320.78 115.613C320.034 114.095 319.66 112.39 319.66 110.498C319.66 108.557 320.046 106.852 320.818 105.384C321.589 103.89 322.635 102.721 323.954 101.874C325.273 101.028 326.766 100.605 328.434 100.605C329.504 100.605 330.499 100.792 331.42 101.165C332.366 101.538 333.187 102.049 333.884 102.696C334.581 103.343 335.116 104.09 335.49 104.936C335.888 105.757 336.087 106.616 336.087 107.512L335.303 106.952V102.21C335.303 101.887 335.403 101.613 335.602 101.389C335.826 101.165 336.099 101.053 336.423 101.053ZM328.658 118.413C329.977 118.413 331.147 118.077 332.167 117.405C333.187 116.708 333.984 115.762 334.556 114.568C335.154 113.348 335.452 111.992 335.452 110.498C335.452 109.03 335.154 107.711 334.556 106.541C333.984 105.371 333.187 104.438 332.167 103.741C331.147 103.044 329.977 102.696 328.658 102.696C327.363 102.696 326.194 103.032 325.148 103.704C324.128 104.376 323.319 105.297 322.722 106.466C322.149 107.636 321.863 108.98 321.863 110.498C321.863 111.992 322.149 113.348 322.722 114.568C323.319 115.762 324.128 116.708 325.148 117.405C326.169 118.077 327.339 118.413 328.658 118.413ZM342.338 117.106C342.139 116.808 342.04 116.522 342.04 116.248C342.064 115.949 342.226 115.713 342.525 115.538C342.724 115.364 342.948 115.29 343.197 115.314C343.471 115.339 343.72 115.464 343.944 115.688C344.616 116.559 345.424 117.268 346.37 117.816C347.341 118.338 348.486 118.6 349.805 118.6C350.502 118.6 351.186 118.488 351.858 118.264C352.555 118.015 353.128 117.654 353.576 117.181C354.024 116.683 354.248 116.061 354.248 115.314C354.248 114.543 354.024 113.921 353.576 113.448C353.128 112.975 352.543 112.602 351.821 112.328C351.124 112.054 350.377 111.818 349.581 111.618C348.735 111.394 347.913 111.146 347.117 110.872C346.32 110.573 345.611 110.212 344.989 109.789C344.392 109.341 343.906 108.806 343.533 108.184C343.16 107.562 342.973 106.802 342.973 105.906C342.973 104.861 343.259 103.94 343.832 103.144C344.404 102.347 345.176 101.725 346.146 101.277C347.142 100.829 348.262 100.605 349.506 100.605C350.129 100.605 350.801 100.692 351.522 100.866C352.244 101.016 352.953 101.277 353.65 101.65C354.347 102.024 354.969 102.534 355.517 103.181C355.741 103.405 355.853 103.666 355.853 103.965C355.853 104.239 355.729 104.488 355.48 104.712C355.281 104.861 355.044 104.936 354.77 104.936C354.521 104.936 354.31 104.836 354.136 104.637C353.538 103.965 352.829 103.455 352.008 103.106C351.186 102.758 350.303 102.584 349.357 102.584C348.635 102.584 347.951 102.708 347.304 102.957C346.681 103.181 346.159 103.53 345.736 104.002C345.312 104.475 345.101 105.098 345.101 105.869C345.151 106.591 345.4 107.176 345.848 107.624C346.32 108.072 346.93 108.445 347.677 108.744C348.449 109.042 349.307 109.316 350.253 109.565C351.049 109.764 351.809 110.001 352.53 110.274C353.277 110.548 353.924 110.897 354.472 111.32C355.044 111.718 355.492 112.228 355.816 112.85C356.164 113.473 356.338 114.257 356.338 115.202C356.338 116.298 356.027 117.243 355.405 118.04C354.808 118.836 353.999 119.446 352.978 119.869C351.958 120.292 350.825 120.504 349.581 120.504C348.237 120.504 346.93 120.242 345.661 119.72C344.416 119.197 343.309 118.326 342.338 117.106Z" fill="#2B7ACA"/>
</svg>
